<svg xmlns="http://www.w3.org/2000/svg" xmlns:xlink="http://www.w3.org/1999/xlink" width="500" zoomAndPan="magnify" viewBox="0 0 375 374.999991" height="500" preserveAspectRatio="xMidYMid meet" version="1.0"><defs><g/><clipPath id="74ad49a34c"><path d="M 139.347656 92.558594 L 235.347656 92.558594 L 235.347656 202.808594 L 139.347656 202.808594 Z M 139.347656 92.558594 " clip-rule="nonzero"/></clipPath></defs><g fill="#c6b5bc" fill-opacity="1"><g transform="translate(91.372843, 254.660066)"><g><path d="M 28.5625 -27.203125 L 28.5625 -21.765625 L 6.796875 -21.765625 L 6.796875 -16.3125 L 28.5625 -16.3125 L 28.5625 -10.875 L 6.796875 -10.875 L 6.796875 0 L 1.359375 0 L 1.359375 -21.765625 C 1.359375 -22.753906 1.601562 -23.660156 2.09375 -24.484375 C 2.582031 -25.316406 3.238281 -25.976562 4.0625 -26.46875 C 4.882812 -26.957031 5.796875 -27.203125 6.796875 -27.203125 Z M 28.5625 -27.203125 "/></g></g></g><g fill="#c6b5bc" fill-opacity="1"><g transform="translate(123.839411, 254.660066)"><g><path d="M 23.125 -27.203125 C 24.113281 -27.203125 25.019531 -26.957031 25.84375 -26.46875 C 26.675781 -25.976562 27.335938 -25.316406 27.828125 -24.484375 C 28.316406 -23.660156 28.5625 -22.753906 28.5625 -21.765625 L 28.5625 -16.3125 C 28.5625 -15.320312 28.316406 -14.410156 27.828125 -13.578125 C 27.335938 -12.753906 26.675781 -12.097656 25.84375 -11.609375 C 25.019531 -11.117188 24.113281 -10.875 23.125 -10.875 L 6.796875 -10.875 L 6.796875 0 L 1.359375 0 L 1.359375 -27.203125 Z M 6.796875 -16.3125 L 23.125 -16.3125 L 23.125 -21.765625 L 6.796875 -21.765625 Z M 6.796875 -16.3125 "/></g></g></g><g fill="#c6b5bc" fill-opacity="1"><g transform="translate(156.30598, 254.660066)"><g><path d="M 28.5625 -27.203125 L 28.5625 -23.390625 C 28.5625 -22.617188 28.289062 -21.960938 27.75 -21.421875 L 19.921875 -13.59375 L 27.75 -5.78125 C 28.289062 -5.238281 28.5625 -4.582031 28.5625 -3.8125 L 28.5625 0 L 23.125 0 L 23.125 -2.71875 L 14.953125 -10.875 L 6.796875 -2.71875 L 6.796875 0 L 1.359375 0 L 1.359375 -3.8125 C 1.359375 -4.582031 1.628906 -5.238281 2.171875 -5.78125 L 10 -13.59375 L 2.171875 -21.421875 C 1.628906 -21.960938 1.359375 -22.617188 1.359375 -23.390625 L 1.359375 -27.203125 L 6.796875 -27.203125 L 6.796875 -24.484375 L 14.953125 -16.3125 L 23.125 -24.484375 L 23.125 -27.203125 Z M 28.5625 -27.203125 "/></g></g></g><g fill="#c6b5bc" fill-opacity="1"><g transform="translate(188.772552, 254.660066)"><g><path d="M 28.5625 -27.203125 L 28.5625 -21.765625 L 6.796875 -21.765625 L 6.796875 -16.3125 L 28.5625 -16.3125 L 28.5625 -10.875 L 6.796875 -10.875 L 6.796875 -5.4375 L 28.5625 -5.4375 L 28.5625 0 L 6.796875 0 C 5.796875 0 4.882812 -0.242188 4.0625 -0.734375 C 3.238281 -1.222656 2.582031 -1.878906 2.09375 -2.703125 C 1.601562 -3.523438 1.359375 -4.4375 1.359375 -5.4375 L 1.359375 -21.765625 C 1.359375 -22.753906 1.601562 -23.660156 2.09375 -24.484375 C 2.582031 -25.316406 3.238281 -25.976562 4.0625 -26.46875 C 4.882812 -26.957031 5.796875 -27.203125 6.796875 -27.203125 Z M 28.5625 -27.203125 "/></g></g></g><g fill="#c6b5bc" fill-opacity="1"><g transform="translate(221.239117, 254.660066)"><g><path d="M 6.796875 -27.203125 L 23.125 -27.203125 C 24.113281 -27.203125 25.019531 -26.957031 25.84375 -26.46875 C 26.675781 -25.976562 27.335938 -25.316406 27.828125 -24.484375 C 28.316406 -23.660156 28.5625 -22.753906 28.5625 -21.765625 L 28.5625 0 L 23.125 0 L 23.125 -21.765625 L 17.6875 -21.765625 L 17.6875 0 L 12.234375 0 L 12.234375 -21.765625 L 6.796875 -21.765625 L 6.796875 0 L 1.359375 0 L 1.359375 -21.765625 C 1.359375 -22.753906 1.601562 -23.660156 2.09375 -24.484375 C 2.582031 -25.316406 3.238281 -25.976562 4.0625 -26.46875 C 4.882812 -26.957031 5.796875 -27.203125 6.796875 -27.203125 Z M 6.796875 -27.203125 "/></g></g></g><g fill="#c6b5bc" fill-opacity="1"><g transform="translate(253.705683, 254.660066)"><g><path d="M 23.125 -27.203125 C 24.113281 -27.203125 25.019531 -26.957031 25.84375 -26.46875 C 26.675781 -25.976562 27.335938 -25.316406 27.828125 -24.484375 C 28.316406 -23.660156 28.5625 -22.753906 28.5625 -21.765625 L 28.5625 -16.3125 C 28.5625 -15.320312 28.316406 -14.410156 27.828125 -13.578125 C 27.335938 -12.753906 26.675781 -12.097656 25.84375 -11.609375 C 25.019531 -11.117188 24.113281 -10.875 23.125 -10.875 L 6.796875 -10.875 L 6.796875 0 L 1.359375 0 L 1.359375 -27.203125 Z M 6.796875 -16.3125 L 23.125 -16.3125 L 23.125 -21.765625 L 6.796875 -21.765625 Z M 6.796875 -16.3125 "/></g></g></g><path fill="#c6b5bc" d="M 218.714844 129.464844 C 218.519531 129.105469 218.261719 128.75 217.730469 128.480469 L 210.105469 124.078125 C 210 124.015625 209.886719 123.972656 209.765625 123.941406 C 209.726562 123.929688 209.691406 123.929688 209.648438 123.925781 C 209.570312 123.910156 209.492188 123.898438 209.410156 123.898438 L 209.398438 123.898438 L 209.398438 123.902344 C 209.171875 123.90625 208.949219 123.964844 208.753906 124.078125 L 191.59375 133.984375 L 191.582031 133.957031 L 190.195312 134.757812 C 188.527344 135.71875 186.472656 135.71875 184.800781 134.757812 L 177.300781 130.425781 C 176.886719 130.183594 176.628906 129.738281 176.628906 129.257812 C 176.628906 128.777344 176.886719 128.332031 177.300781 128.089844 L 184.800781 123.761719 C 186.472656 122.796875 188.527344 122.796875 190.195312 123.761719 L 192 124.804688 C 192.417969 125.042969 192.929688 125.042969 193.347656 124.804688 L 200.335938 120.773438 C 200.75 120.53125 201.007812 120.085938 201.007812 119.605469 C 201.007812 119.125 200.75 118.679688 200.335938 118.4375 L 190.195312 112.582031 C 188.527344 111.621094 186.472656 111.621094 184.800781 112.582031 L 159.964844 126.921875 C 158.167969 127.960938 158.167969 130.554688 159.964844 131.59375 L 184.800781 145.933594 C 186.472656 146.894531 188.527344 146.894531 190.195312 145.933594 L 209.398438 134.847656 L 209.398438 160.101562 L 203.226562 163.675781 L 190.195312 171.21875 C 189.78125 171.457031 189.34375 171.636719 188.882812 171.761719 C 187.507812 172.128906 186.039062 171.929688 184.800781 171.21875 L 166.949219 160.914062 C 166.113281 160.429688 165.597656 159.539062 165.597656 158.578125 L 165.597656 143.855469 C 165.597656 143.375 165.339844 142.925781 164.925781 142.691406 L 157.941406 138.652344 C 157.523438 138.414062 157.011719 138.414062 156.59375 138.652344 C 156.175781 138.894531 155.917969 139.34375 155.917969 139.824219 L 155.917969 164.167969 C 155.917969 165.128906 156.433594 166.019531 157.265625 166.503906 L 184.800781 182.402344 C 185.609375 182.867188 186.527344 183.113281 187.460938 183.121094 L 187.480469 183.121094 C 187.613281 183.121094 187.742188 183.105469 187.875 183.097656 C 187.976562 183.089844 188.078125 183.089844 188.179688 183.078125 C 188.320312 183.058594 188.457031 183.027344 188.59375 183 C 188.6875 182.976562 188.78125 182.964844 188.871094 182.941406 C 189.023438 182.90625 189.164062 182.847656 189.308594 182.796875 C 189.390625 182.765625 189.46875 182.746094 189.546875 182.71875 C 189.765625 182.625 189.984375 182.519531 190.191406 182.402344 L 213.949219 168.683594 L 217.714844 166.546875 C 218.558594 166.070312 219.078125 165.175781 219.078125 164.203125 L 219.078125 130.8125 C 219.078125 130.332031 218.949219 129.867188 218.714844 129.464844 " fill-opacity="1" fill-rule="nonzero"/><g clip-path="url(#74ad49a34c)"><path fill="#c6b5bc" d="M 190.128906 104.519531 C 189.328125 104.054688 188.425781 103.808594 187.5 103.800781 C 186.578125 103.808594 185.671875 104.058594 184.867188 104.519531 L 151.691406 123.675781 C 150.027344 124.636719 149 126.410156 149 128.332031 L 149 166.648438 C 149 168.570312 150.027344 170.34375 151.691406 171.304688 L 184.867188 190.460938 C 185.683594 190.929688 186.597656 191.179688 187.535156 191.183594 C 188.472656 191.179688 189.394531 190.929688 190.207031 190.464844 L 223.242188 171.390625 C 224.902344 170.433594 225.929688 168.65625 225.929688 166.734375 L 225.929688 155.664062 C 225.925781 155.179688 226.1875 154.738281 226.601562 154.496094 L 233.632812 150.4375 C 234.046875 150.195312 234.5625 150.195312 234.976562 150.4375 C 235.394531 150.679688 235.652344 151.121094 235.652344 151.601562 L 235.652344 172.222656 C 235.648438 173.101562 235.429688 173.96875 235.015625 174.742188 C 234.910156 175.25 234.355469 175.847656 233.574219 176.460938 C 233.558594 176.476562 233.535156 176.492188 233.519531 176.507812 C 231.53125 178.054688 228.242188 179.648438 227.660156 179.988281 L 190.207031 201.609375 C 189.367188 202.09375 188.414062 202.339844 187.445312 202.328125 L 187.40625 202.328125 L 187.40625 202.324219 C 186.511719 202.300781 185.640625 202.054688 184.867188 201.609375 L 142.035156 176.878906 C 140.371094 175.921875 139.347656 174.144531 139.347656 172.222656 L 139.347656 122.761719 C 139.347656 121.898438 139.457031 121.019531 139.835938 120.273438 C 139.886719 120.082031 140.40625 119.128906 141.476562 118.347656 C 141.878906 118.078125 142.589844 117.710938 143.257812 117.324219 L 184.75 93.371094 C 185.585938 92.890625 186.535156 92.644531 187.5 92.65625 C 188.464844 92.644531 189.414062 92.890625 190.25 93.371094 L 228.535156 115.472656 C 228.621094 115.527344 228.6875 115.589844 228.761719 115.652344 L 229.25 115.929688 C 230.550781 116.617188 232.589844 117.671875 233.695312 118.511719 L 233.785156 118.578125 C 233.800781 118.589844 233.816406 118.601562 233.832031 118.609375 C 233.867188 118.644531 233.894531 118.675781 233.933594 118.710938 C 234.339844 119.050781 234.683594 119.449219 234.953125 119.894531 C 234.960938 119.898438 234.964844 119.90625 234.96875 119.914062 L 234.964844 119.914062 C 235.414062 120.664062 235.652344 121.515625 235.652344 122.386719 L 235.652344 140.5 C 235.652344 140.980469 235.394531 141.421875 234.976562 141.664062 L 227.941406 145.726562 C 227.53125 145.964844 227.015625 145.964844 226.601562 145.726562 C 226.183594 145.488281 225.925781 145.042969 225.925781 144.5625 L 225.925781 128.226562 C 225.925781 126.304688 224.898438 124.527344 223.234375 123.566406 Z M 190.128906 104.519531 " fill-opacity="1" fill-rule="nonzero"/></g></svg>